<?xml version="1.0"?>
<svg xmlns="http://www.w3.org/2000/svg" width="192" height="320" viewBox="-1 -1 12 20" stroke="#000" stroke-width=".25">
<rect width = "100%" height = "100%" fill = "#000"/>
<polygon id="a" fill="#F00" points="1, 1  2, 0  8, 0  9, 1  8, 2  2, 2"/>
<polygon id="b" fill="#F00" points="9, 1 10, 2 10, 8  9, 9  8, 8  8, 2"/>
<polygon id="c" fill="#F00" points="9, 9 10,10 10,16  9,17  8,16  8,10"/>
<polygon id="d" fill="#F00" points="9,17  8,18  2,18  1,17  2,16  8,16"/>
<polygon id="e" fill="#F00" points="1,17  0,16  0,10  1, 9  2,10  2,16"/>
<polygon id="f" fill="#F00" points="1, 9  0, 8  0, 2  1, 1  2, 2  2, 8"/>
<polygon id="g" fill="#F00" points="1, 9  2, 8  8, 8  9, 9  8,10  2,10"/>
</svg>